<?xml version="1.0" encoding="utf-8"?>
<svg width="361px" height="323px" viewBox="0 0 361 323" version="1.1" xmlns:xlink="http://www.w3.org/1999/xlink" xmlns="http://www.w3.org/2000/svg">
  <defs>
    <path d="M239.166 167.256C239.166 167.256 292.507 172.859 278.309 242.872C264.111 312.885 138.153 301.624 110.808 290.872C83.4625 280.12 66.1484 269.958 63.3078 235.372C60.4672 200.786 63.3078 181.371 63.3078 181.371C63.3078 181.371 86.5046 212.414 106.308 190.372C126.111 168.329 239.166 167.256 239.166 167.256Z" id="path_1" />
    <path d="M0 119.871C0 70.1658 40.2944 29.8714 90 29.8714C139.706 29.8714 180 70.1658 180 119.871C180 169.577 139.706 209.871 90 209.871C40.2944 209.871 0 169.577 0 119.871Z" id="path_2" />
    <path d="M55.1465 28.8698C55.1465 28.8698 25.3082 16.4126 19.1964 17.0851C13.0846 17.7576 32.0595 0.5017 38.4281 0.00620174C44.7967 -0.489282 55.1465 28.8698 55.1465 28.8698Z" id="path_3" />
    <path d="M33.4798 2.02778L34.6443 2.54156C36.9477 3.55784 37.278 5.73556 35.6212 7.63123C33.8714 9.63332 32.1541 12.0924 32.6774 13.5737C33.1944 15.0373 36.2515 15.4907 39.0747 15.5879C41.8582 15.6839 43.4612 17.6234 42.6565 20.2898L42.1321 22.0275C41.3928 24.477 38.7116 26.4136 36.1888 25.987C31.2643 25.1541 24.0251 22.87 23.0351 16.6196C22.2094 11.4063 24.0085 6.95094 25.8234 3.96939C27.2659 1.59954 30.9415 0.907868 33.4798 2.02778Z" id="path_4" />
    <path d="M31.4991 37.5483L30.6506 38.497C28.9723 40.3736 26.7991 40.0148 25.5082 37.8533C24.1448 35.5705 22.3368 33.1773 20.7662 33.2172C19.2145 33.2567 17.8386 36.0241 16.8737 38.6791C15.9223 41.2967 13.5823 42.2218 11.2951 40.6326L9.80454 39.5968C7.70335 38.1368 6.69006 34.9883 7.87544 32.7208C10.1893 28.2948 14.5986 22.1157 20.8491 23.1057C26.0623 23.9314 29.7437 27.0192 32.0185 29.6666C33.8266 31.7709 33.3486 35.4803 31.4991 37.5483Z" id="path_5" />
    <path d="M0.246038 17.1938L0.308376 15.9226C0.431685 13.408 2.34638 12.3191 4.70988 13.1865C7.20607 14.1026 10.1172 14.8247 11.3127 13.8053C12.4938 12.7981 11.8214 9.78157 10.9005 7.11098C9.99252 4.47798 11.2288 2.28643 14.0064 2.08213L15.8167 1.94899C18.3684 1.76131 21.1373 3.57048 21.6431 6.07862C22.6303 10.9745 23.0922 18.5514 17.6117 21.7156C13.0406 24.3547 8.23641 24.2717 4.80251 23.6459C2.0731 23.1485 0.110155 19.9649 0.246038 17.1938Z" id="path_6" />
    <path d="M128.079 87.1118C128.079 87.1118 120.473 97.6244 119.692 108.038C118.912 118.452 117.332 121.551 113.5 124.371C109.668 127.192 116.334 131.676 119.692 133.039C123.051 134.401 140.037 135.209 157.693 127.039C175.348 118.868 181.231 103.225 182.693 94.0383C184.155 84.8514 185.316 77.8073 172.193 76.0382C159.069 74.2691 163.099 82.7975 151.693 87.1119C140.286 91.4263 128.079 87.1118 128.079 87.1118Z" id="path_7" />
    <path d="M0 43.0747L0 31.1384C0 22.5398 2.36865 15.2004 7.10596 9.12026C11.8433 3.04013 17.5617 6.10352e-05 24.2613 6.10352e-05L109.149 6.10352e-05C115.849 6.10352e-05 121.567 3.04013 126.305 9.12026C131.042 15.2004 133.411 22.5398 133.411 31.1384L133.411 55.011C133.411 63.6096 131.042 70.949 126.305 77.0291C121.567 83.1093 115.849 86.1493 109.149 86.1493L24.2613 86.1493C17.5617 86.1493 11.8433 83.1093 7.10596 77.0291C2.36865 70.949 0 63.6096 0 55.011L0 43.0747Z" id="path_8" />
    <path d="M79.8468 43.0746L79.8468 31.1383C79.8468 22.5397 81.6634 15.2003 85.2965 9.12019C88.9296 3.04006 93.3152 0 98.4532 0L114.804 0C119.942 0 124.328 3.04006 127.961 9.12019C131.594 15.2003 133.411 22.5397 133.411 31.1383L133.411 55.011C133.411 63.6096 131.594 70.9489 127.961 77.0291C124.328 83.1092 119.942 86.1493 114.804 86.1493L98.4532 86.1493C93.3152 86.1493 88.9296 83.1092 85.2965 77.0291C81.6634 70.9489 79.8468 63.6096 79.8468 55.011L79.8468 43.0746Z" id="path_9" />
    <clipPath id="clip_1">
      <use xlink:href="#path_1" />
    </clipPath>
    <clipPath id="clip_2">
      <use xlink:href="#path_2" />
    </clipPath>
    <clipPath id="clip_3">
      <use xlink:href="#path_3" />
    </clipPath>
    <clipPath id="clip_4">
      <use xlink:href="#path_4" />
    </clipPath>
    <clipPath id="clip_5">
      <use xlink:href="#path_5" />
    </clipPath>
    <clipPath id="clip_6">
      <use xlink:href="#path_6" />
    </clipPath>
    <clipPath id="clip_7">
      <use xlink:href="#path_7" />
    </clipPath>
    <clipPath id="clip_8">
      <use xlink:href="#path_8" />
    </clipPath>
    <clipPath id="clip_9">
      <use xlink:href="#path_9" />
    </clipPath>
  </defs>
  <g id="Group">
    <g id="Agua" transform="translate(0 259)">
      <path d="M0 32C0 14.3269 80.8126 0 180.5 0C280.187 0 361 14.3269 361 32C361 49.6731 280.187 64 180.5 64C80.8126 64 0 49.6731 0 32Z" id="Oval" fill="#D3FCFD" fill-rule="evenodd" stroke="none" />
      <g id="Group" transform="translate(40.129333 13.716034)">
        <path d="M29.7251 0C28.5205 1.20441 26.1677 1.28598 24.7137 1.90909C18.9536 4.37766 12.4852 6.59155 6.57748 9.54538C3.38464 11.1418 -0.80574 12.0044 0.134338 16.7044C0.489075 18.4779 2.03766 17.9284 3.2366 18.6135C6.03409 20.2121 9.40602 23.5565 12.5434 24.3408C13.4918 24.5779 14.1414 23.9572 14.6911 25.0567" id="Vector" fill="none" fill-rule="evenodd" stroke="#E6FEFF" stroke-width="5" />
        <path d="M46.6682 27.6816C46.6682 29.8737 48.845 30.1809 50.2477 31.0226C54.5288 33.5912 59.9264 36.5111 65.0431 36.5111C87.6491 36.5111 110.438 37.7043 133.054 37.7043" id="Vector" fill="none" fill-rule="evenodd" stroke="#E6FEFF" stroke-width="5" />
        <path d="M158.349 32.9316C162.438 32.9316 170.917 34.6418 174.338 32.9316C182.028 29.0865 190.697 28.3976 199.633 28.3976" id="Vector" fill="none" fill-rule="evenodd" stroke="#E6FEFF" stroke-width="5" />
        <path d="M223.497 37.4657C223.089 35.8368 221.145 32.4766 222.303 30.5453C223.71 28.2014 232.423 27.9517 234.712 27.443C247.025 24.707 260.658 26.0112 273.371 26.0112C275.693 26.0112 278.241 26.2814 280.53 25.7726C289.219 23.8417 286.959 16.4544 281.008 11.6931C279.395 10.4029 277.407 11.1223 275.758 10.0226" id="Vector" fill="none" fill-rule="evenodd" stroke="#E6FEFF" stroke-width="5" />
        <path d="M249.508 0.477264C249.508 2.60407 252.253 3.04303 253.803 3.81815C256.628 5.23056 265.284 8.88324 263.587 13.1249C262.988 14.6226 258.497 15.3891 257.144 15.7499C250.96 17.399 243.315 16.2272 236.86 16.2272" id="Vector" fill="none" fill-rule="evenodd" stroke="#E6FEFF" stroke-width="5" />
      </g>
    </g>
    <g id="Patito" transform="translate(5 0)">
      <g id="cuerpo">
        <use stroke="none" fill="#FFFFFF" xlink:href="#path_1" fill-rule="evenodd" />
        <g clip-path="url(#clip_1)">
          <use xlink:href="#path_1" fill="none" stroke="#000000" stroke-width="6" />
        </g>
      </g>
      <g id="cabeza" transform="translate(73.8078 0)">
        <g id="Cabeza">
          <use stroke="none" fill="#FFFFFF" xlink:href="#path_2" fill-rule="evenodd" />
          <g clip-path="url(#clip_2)">
            <use xlink:href="#path_2" fill="none" stroke="#000000" stroke-width="6" />
          </g>
        </g>
        <g id="Vector">
          <use stroke="none" fill="#FFFFFF" xlink:href="#path_3" fill-rule="evenodd" />
          <g clip-path="url(#clip_3)">
            <use xlink:href="#path_3" fill="none" stroke="#000000" stroke-width="6" />
          </g>
        </g>
        <path d="M32.7042 208.828L175.692 215L166.692 158.5L34.6922 189.5L32.7042 208.828Z" id="Fill" fill="#FFFFFF" fill-rule="evenodd" stroke="none" />
        <g id="Enojo" transform="translate(18 49.871445)">
          <g id="Rectangle">
            <use stroke="none" fill="#FE5367" xlink:href="#path_4" fill-rule="evenodd" />
            <g clip-path="url(#clip_4)">
              <use xlink:href="#path_4" fill="none" stroke="#000000" stroke-width="4" />
            </g>
          </g>
          <g id="Rectangle">
            <use stroke="none" fill="#FE5367" xlink:href="#path_5" fill-rule="evenodd" />
            <g clip-path="url(#clip_5)">
              <use xlink:href="#path_5" fill="none" stroke="#000000" stroke-width="4" />
            </g>
          </g>
          <g id="Rectangle">
            <use stroke="none" fill="#FE5367" xlink:href="#path_6" fill-rule="evenodd" />
            <g clip-path="url(#clip_6)">
              <use xlink:href="#path_6" fill="none" stroke="#000000" stroke-width="4" />
            </g>
          </g>
        </g>
        <g id="Ojos" transform="translate(61.90187 40.15982)">
          <g id="Ojo-izquierdo" transform="translate(0 33.53398)">
            <path d="M4.13706 0.0697755L44.6992 0.777789Q44.8956 0.781217 45.0907 0.803877Q45.2858 0.826537 45.4777 0.868212Q45.6697 0.909886 45.8566 0.970173Q46.0435 1.03046 46.2236 1.10878Q46.4038 1.1871 46.5753 1.2827Q46.7469 1.37829 46.9083 1.49025Q47.0697 1.6022 47.2193 1.72943Q47.3689 1.85667 47.5054 1.99795Q47.6418 2.13924 47.7637 2.29322Q47.8857 2.4472 47.9919 2.61239Q48.0982 2.77758 48.1877 2.95239Q48.2773 3.1272 48.3493 3.30995Q48.4212 3.49269 48.475 3.68161Q48.5287 3.87053 48.5636 4.06381Q48.5986 4.25709 48.6144 4.45286Q48.6303 4.64863 48.6268 4.84502L48.6268 4.84893Q48.6233 5.04531 48.6007 5.24041Q48.578 5.43551 48.5363 5.62745Q48.4947 5.81939 48.4344 6.00632Q48.3741 6.19325 48.2958 6.37337Q48.2175 6.55349 48.1219 6.72507Q48.0263 6.89665 47.9143 7.05802Q47.8024 7.21941 47.6751 7.36904Q47.5479 7.51867 47.4066 7.6551Q47.2653 7.79154 47.1113 7.91348Q46.9574 8.03541 46.7922 8.14166Q46.627 8.24791 46.4522 8.33746Q46.2774 8.42701 46.0946 8.499Q45.9119 8.57098 45.723 8.62471Q45.534 8.67844 45.3408 8.71339Q45.1475 8.74834 44.9517 8.76418Q44.7559 8.78001 44.5596 8.77658L3.99744 8.06857Q3.80106 8.06514 3.60596 8.04248Q3.41086 8.01982 3.21892 7.97815Q3.02698 7.93647 2.84005 7.87619Q2.65312 7.8159 2.473 7.73758Q2.29287 7.65926 2.1213 7.56367Q1.94972 7.46807 1.78834 7.35612Q1.62696 7.24416 1.47733 7.11693Q1.3277 6.9897 1.19126 6.84841Q1.05482 6.70712 0.932887 6.55314Q0.810953 6.39916 0.7047 6.23397Q0.598446 6.06878 0.508896 5.89398Q0.419345 5.71917 0.34736 5.53642Q0.275375 5.35368 0.221649 5.16476Q0.167922 4.97584 0.132972 4.78256Q0.0980218 4.58928 0.0821844 4.39351Q0.0663469 4.19774 0.0697748 4.00136L0.0698432 3.99744Q0.073271 3.80106 0.0959311 3.60596Q0.118591 3.41086 0.160265 3.21892Q0.201939 3.02698 0.262226 2.84005Q0.322513 2.65312 0.400832 2.473Q0.479151 2.29288 0.574747 2.1213Q0.670344 1.94972 0.782298 1.78834Q0.894252 1.62696 1.02148 1.47733Q1.14872 1.3277 1.29 1.19126Q1.43129 1.05482 1.58527 0.932887Q1.73925 0.810954 1.90444 0.7047Q2.06963 0.598447 2.24444 0.508896Q2.41925 0.419346 2.60199 0.34736Q2.78474 0.275375 2.97366 0.221649Q3.16258 0.167923 3.35585 0.132973Q3.54913 0.0980225 3.7449 0.082185Q3.94068 0.0663476 4.13706 0.0697755L4.13706 0.0697755Z" id="Rectangle" fill="#000000" fill-rule="evenodd" stroke="none" />
            <path d="M8.09822 24.1776C8.09822 12.0274 17.948 2.17764 30.0982 2.17764C42.2485 2.17764 52.0983 12.0274 52.0983 24.1776C52.0983 36.3279 42.2485 46.1776 30.0982 46.1776C17.948 46.1776 8.09822 36.3279 8.09822 24.1776Z" id="Oval" fill="#000000" fill-rule="evenodd" stroke="none" />
            <path d="M12.0982 21.1776C12.0982 15.6548 16.5754 11.1776 22.0982 11.1776C27.6211 11.1776 32.0982 15.6548 32.0982 21.1776C32.0982 26.7005 27.6211 31.1776 22.0982 31.1776C16.5754 31.1776 12.0982 26.7005 12.0982 21.1776Z" id="Oval" fill="#FFFFFF" fill-rule="evenodd" stroke="none" />
          </g>
          <g id="Ojo-derecho" transform="translate(80.14226 0)">
            <path d="M3.1505 18.2502L23.3592 2.46145Q23.5139 2.34052 23.6798 2.23535Q23.8457 2.13018 24.0211 2.04178Q24.1965 1.95337 24.3797 1.88259Q24.5629 1.8118 24.7522 1.75931Q24.9414 1.70682 25.135 1.67314Q25.3285 1.63945 25.5243 1.6249Q25.7202 1.61034 25.9165 1.61505Q26.1129 1.61977 26.3079 1.6437Q26.5028 1.66764 26.6945 1.71057Q26.8861 1.7535 27.0727 1.81501Q27.2592 1.87652 27.4388 1.95601Q27.6184 2.03551 27.7893 2.13223Q27.9603 2.22894 28.1209 2.34195Q28.2816 2.45496 28.4304 2.58317Q28.5792 2.71138 28.7147 2.85356Q28.8502 2.99573 28.9711 3.15051L28.9735 3.15359Q29.0944 3.30836 29.1996 3.47424Q29.3048 3.64013 29.3932 3.81552Q29.4816 3.99091 29.5524 4.17412Q29.6232 4.35733 29.6757 4.5466Q29.7281 4.73587 29.7618 4.92937Q29.7955 5.12287 29.8101 5.31874Q29.8246 5.51461 29.8199 5.71097Q29.8152 5.90732 29.7913 6.10227Q29.7673 6.29722 29.7244 6.48888Q29.6815 6.68054 29.62 6.86707Q29.5584 7.05361 29.479 7.23321Q29.3995 7.41282 29.3027 7.58376Q29.206 7.75471 29.093 7.91536Q28.98 8.076 28.8518 8.2248Q28.7236 8.37359 28.5814 8.5091Q28.4392 8.64461 28.2845 8.76554L8.07579 24.5543Q7.92102 24.6752 7.75514 24.7804Q7.58926 24.8855 7.41387 24.9739Q7.23847 25.0623 7.05526 25.1331Q6.87205 25.2039 6.68278 25.2564Q6.49352 25.3089 6.30001 25.3426Q6.10651 25.3763 5.91064 25.3908Q5.71477 25.4054 5.51841 25.4007Q5.32206 25.396 5.12711 25.372Q4.93217 25.3481 4.7405 25.3052Q4.54884 25.2622 4.36231 25.2007Q4.17578 25.1392 3.99617 25.0597Q3.81657 24.9802 3.64562 24.8835Q3.47467 24.7868 3.31403 24.6738Q3.15338 24.5608 3.00459 24.4326Q2.85579 24.3043 2.72028 24.1622Q2.58477 24.02 2.46385 23.8652L2.46145 23.8621Q2.34052 23.7074 2.23535 23.5415Q2.13018 23.3756 2.04178 23.2002Q1.95337 23.0248 1.88259 22.8416Q1.8118 22.6584 1.75931 22.4691Q1.70682 22.2799 1.67314 22.0864Q1.63945 21.8929 1.6249 21.697Q1.61034 21.5011 1.61505 21.3048Q1.61977 21.1084 1.6437 20.9135Q1.66764 20.7185 1.71057 20.5269Q1.7535 20.3352 1.81501 20.1487Q1.87652 19.9621 1.95601 19.7825Q2.03551 19.6029 2.13223 19.432Q2.22894 19.261 2.34195 19.1004Q2.45496 18.9397 2.58317 18.7909Q2.71138 18.6421 2.85355 18.5066Q2.99573 18.3711 3.1505 18.2502L3.1505 18.2502Z" id="Rectangle" fill="#000000" fill-rule="evenodd" stroke="none" />
            <path d="M5.9559 26.7116C5.9559 18.4274 12.6716 11.7116 20.9559 11.7116C29.2402 11.7116 35.9559 18.4274 35.9559 26.7116C35.9559 34.9959 29.2402 41.7116 20.9559 41.7116C12.6716 41.7116 5.9559 34.9959 5.9559 26.7116Z" id="Oval" fill="#000000" fill-rule="evenodd" stroke="none" />
            <path d="M8.9559 23.2116C8.9559 20.1741 11.1945 17.7116 13.9559 17.7116C16.7173 17.7116 18.9559 20.1741 18.9559 23.2116C18.9559 26.2492 16.7173 28.7116 13.9559 28.7116C11.1945 28.7116 8.9559 26.2492 8.9559 23.2116Z" id="Oval" fill="#FFFFFF" fill-rule="evenodd" stroke="none" />
          </g>
        </g>
        <g id="Pico">
          <use stroke="none" fill="#D97706" xlink:href="#path_7" fill-rule="evenodd" />
          <g clip-path="url(#clip_7)">
            <use xlink:href="#path_7" fill="none" stroke="#A95B00" stroke-width="6" />
          </g>
        </g>
      </g>
      <g id="martillo" transform="matrix(0.819152 -0.5735765 0.5735765 0.819152 0 162.854)">
        <path d="M68.5702 121.958C68.5702 127.404 63.774 131.819 57.8575 131.819C51.941 131.819 47.1447 127.404 47.1447 121.958C47.1447 116.54 51.8795 112.118 57.8192 112.098C63.759 112.079 68.5702 116.513 68.5702 121.958L68.5702 121.958Z" id="path3835" fill="#79431F" fill-rule="evenodd" stroke="none" />
        <path d="M68.5702 110.541C68.5702 115.987 63.7739 120.402 57.8574 120.402C51.941 120.402 47.1447 115.987 47.1447 110.541C47.1447 105.123 51.8795 100.7 57.8192 100.681C63.7589 100.661 68.5701 105.095 68.5701 110.541L68.5702 110.541Z" id="path3839" fill="#79431F" fill-rule="evenodd" stroke="none" />
        <path d="M68.5702 99.1236C68.5702 104.569 63.774 108.984 57.8575 108.984C51.941 108.984 47.1447 104.569 47.1447 99.1236C47.1447 93.7052 51.8795 89.2827 57.8192 89.2632C63.7589 89.2438 68.5702 93.6778 68.5702 99.1236L68.5702 99.1236Z" id="path3841" fill="#79431F" fill-rule="evenodd" stroke="none" />
        <path d="M68.5703 87.7063C68.5703 93.152 63.774 97.5667 57.8575 97.5667C51.941 97.5667 47.1447 93.1521 47.1447 87.7063C47.1447 82.2879 51.8796 77.8654 57.8193 77.8459C63.759 77.8265 68.5702 82.2605 68.5702 87.7063L68.5703 87.7063Z" id="path3843" fill="#79431F" fill-rule="evenodd" stroke="none" />
        <g id="rect3845">
          <use stroke="none" fill="#985F3A" xlink:href="#path_8" fill-rule="evenodd" />
          <g clip-path="url(#clip_8)">
            <use xlink:href="#path_8" fill="none" stroke="#664027" stroke-width="6" stroke-linecap="round" stroke-linejoin="round" />
          </g>
        </g>
        <g id="rect3847">
          <use stroke="none" fill="#AF8060" xlink:href="#path_9" fill-rule="evenodd" />
          <g clip-path="url(#clip_9)">
            <use xlink:href="#path_9" fill="none" stroke="#664027" stroke-width="6" stroke-linecap="round" stroke-linejoin="round" />
          </g>
        </g>
      </g>
      <path d="M156.449 223.777C140.26 205.735 105.2 206.746 97.8249 218.267C90.4497 229.787 110.079 237.03 110.079 237.03C110.079 237.03 91.1716 233.721 92.9223 246.956C94.673 260.191 117.743 256.635 117.743 256.635C117.743 256.635 94.4986 262.934 106.795 270.845C119.091 278.755 165.178 275.043 163.939 246.125" id="ala" fill="#FFFFFF" fill-rule="evenodd" stroke="#000000" stroke-width="3" stroke-linecap="round" stroke-linejoin="round" />
      <g id="corbata" transform="translate(210.73392 152.87146)">
        <path d="M9.52542 20.3197C9.52542 20.3197 2.96173 75.9446 10.9976 90.3284C19.0336 104.712 30.8325 107.287 29.8527 95.1657C28.873 83.0444 33.4203 75.9989 36.985 85.5515C40.5498 95.1042 44.6438 103.304 47.6514 93.6042C50.6589 83.9046 52.4118 79.5967 55.0186 80.9732C57.6253 82.3497 58.4988 87.4224 62.9102 85.7738C67.3217 84.1253 64.6671 68.2332 72.4713 75.4471C80.2755 82.661 77.578 72.1008 75.7348 67.1711C73.8917 62.2414 72.4389 42.5009 55.9606 28.9574C39.4824 15.4138 32.9719 11 32.9719 11L9.52542 20.3197Z" id="Vector" fill="#EFEFEF" fill-rule="evenodd" stroke="none" />
        <path d="M7.95137 7.981L26.7982 2.24274Q26.9815 2.18693 27.1672 2.13996Q27.353 2.09299 27.5408 2.05497Q27.7286 2.01695 27.918 1.98796Q28.1074 1.95897 28.298 1.93908Q28.4885 1.91919 28.6799 1.90845Q28.8712 1.89771 29.0628 1.89614Q29.2544 1.89457 29.4458 1.90218Q29.6373 1.90978 29.8282 1.92654Q30.019 1.94331 30.2089 1.96919Q30.3987 1.99507 30.5871 2.03001Q30.7755 2.06495 30.962 2.10887Q31.1485 2.15279 31.3327 2.20559Q31.5169 2.25838 31.6984 2.31994Q31.8798 2.38149 32.0581 2.45167Q32.2364 2.52184 32.4111 2.60047Q32.5859 2.67909 32.7566 2.766Q32.9274 2.8529 33.0938 2.94788Q33.2602 3.04286 33.4219 3.14569Q33.5836 3.24853 33.7402 3.35899Q33.8967 3.46945 34.0478 3.58727Q34.1989 3.7051 34.3442 3.83003Q34.4895 3.95495 34.6286 4.08669Q34.7678 4.21843 34.9004 4.35668Q35.0331 4.49493 35.159 4.63937Q35.2849 4.78381 35.4037 4.93411Q35.5226 5.08442 35.6341 5.24024Q35.7456 5.39606 35.8495 5.55704Q35.9534 5.71802 36.0495 5.88379Q36.1456 6.04956 36.2337 6.21974Q36.3217 6.38992 36.4015 6.56412Q36.4813 6.73832 36.5527 6.91614Q36.624 7.09396 36.6868 7.275L39.277 14.745Q39.3429 14.935 39.3992 15.1282Q39.4554 15.3213 39.5019 15.517Q39.5484 15.7128 39.585 15.9106Q39.6216 16.1084 39.6482 16.3078Q39.6748 16.5072 39.6914 16.7077Q39.7079 16.9082 39.7144 17.1092Q39.7208 17.3103 39.7172 17.5114Q39.7135 17.7126 39.6997 17.9133Q39.686 18.114 39.6621 18.3137Q39.6383 18.5135 39.6045 18.7118Q39.5706 18.9101 39.5268 19.1064Q39.4831 19.3028 39.4295 19.4967Q39.3759 19.6906 39.3126 19.8815Q39.2494 20.0725 39.1766 20.2601Q39.1038 20.4476 39.0217 20.6312Q38.9396 20.8149 38.8484 20.9942Q38.7571 21.1735 38.657 21.3479Q38.5569 21.5224 38.4481 21.6916Q38.3393 21.8609 38.2221 22.0244Q38.105 22.188 37.9798 22.3454Q37.8546 22.5029 37.7216 22.6538Q37.5886 22.8048 37.4482 22.9488Q37.3078 23.0929 37.1604 23.2298Q37.0129 23.3666 36.8588 23.4959Q36.7046 23.6251 36.5442 23.7465Q36.3837 23.8678 36.2174 23.981Q36.0511 24.0941 35.8792 24.1987Q35.7074 24.3033 35.5306 24.3992Q35.3537 24.4951 35.1722 24.5819Q34.9908 24.6688 34.8052 24.7464Q34.6196 24.824 34.4303 24.8922Q34.2411 24.9604 34.0486 25.019L15.2018 30.7572Q15.0185 30.813 14.8327 30.86Q14.647 30.907 14.4592 30.945Q14.2714 30.983 14.082 31.012Q13.8926 31.041 13.702 31.0609Q13.5114 31.0808 13.3201 31.0915Q13.1288 31.1023 12.9372 31.1038Q12.7456 31.1054 12.5542 31.0978Q12.3627 31.0902 12.1718 31.0734Q11.9809 31.0567 11.7911 31.0308Q11.6012 31.0049 11.4128 30.97Q11.2245 30.935 11.0379 30.8911Q10.8514 30.8472 10.6672 30.7944Q10.4831 30.7416 10.3016 30.68Q10.1202 30.6185 9.94185 30.5483Q9.76356 30.4781 9.58882 30.3995Q9.41409 30.3209 9.24332 30.234Q9.07256 30.1471 8.90614 30.0521Q8.73973 29.9571 8.57806 29.8543Q8.41638 29.7514 8.25982 29.641Q8.10325 29.5305 7.95216 29.4127Q7.80106 29.2949 7.65577 29.1699Q7.51049 29.045 7.37135 28.9133Q7.23222 28.7815 7.09955 28.6433Q6.96688 28.505 6.84098 28.3606Q6.71508 28.2162 6.59624 28.0658Q6.4774 27.9155 6.36589 27.7597Q6.25439 27.6039 6.15047 27.4429Q6.04655 27.2819 5.95045 27.1162Q5.85436 26.9504 5.76631 26.7802Q5.67827 26.61 5.59847 26.4358Q5.51867 26.2616 5.4473 26.0838Q5.37593 25.906 5.31316 25.725L2.723 18.255Q2.65709 18.0649 2.60083 17.8718Q2.54456 17.6787 2.49807 17.4829Q2.45158 17.2872 2.41498 17.0894Q2.37839 16.8916 2.35178 16.6922Q2.32518 16.4928 2.30863 16.2923Q2.29208 16.0918 2.28562 15.8907Q2.27917 15.6897 2.28283 15.4885Q2.28649 15.2874 2.30026 15.0867Q2.31403 14.886 2.33786 14.6863Q2.3617 14.4865 2.39554 14.2882Q2.42939 14.0899 2.47316 13.8935Q2.51693 13.6972 2.57051 13.5033Q2.62409 13.3094 2.68735 13.1184Q2.75061 12.9275 2.82339 12.7399Q2.89617 12.5524 2.97828 12.3687Q3.06039 12.1851 3.15163 12.0058Q3.24287 11.8265 3.34301 11.652Q3.44314 11.4775 3.55192 11.3083Q3.6607 11.1391 3.77784 10.9756Q3.89499 10.812 4.0202 10.6546Q4.14542 10.4971 4.27839 10.3462Q4.41137 10.1952 4.55176 10.0511Q4.69215 9.90705 4.8396 9.7702Q4.98706 9.63336 5.14121 9.5041Q5.29535 9.37484 5.4558 9.2535Q5.61625 9.13215 5.78259 9.01902Q5.94894 8.90589 6.12076 8.80126Q6.29258 8.69663 6.46944 8.60077Q6.6463 8.50492 6.82776 8.41807Q7.00922 8.33122 7.19481 8.2536Q7.3804 8.17598 7.56966 8.10779Q7.75892 8.0396 7.95137 7.981L7.95137 7.981Z" id="Rectangle" fill="#D4D4D4" fill-rule="evenodd" stroke="none" />
      </g>
    </g>
  </g>
</svg>