<svg preserveAspectRatio="xMinYMin meet" viewBox="0 0 360 320" width="360" height="320" xmlns:xlink="http://www.w3.org/1999/xlink" xmlns="http://www.w3.org/2000/svg"><defs><clipPath id="j"><use xlink:href="#a"/></clipPath><clipPath id="r"><use xlink:href="#i"/></clipPath><clipPath id="q"><use xlink:href="#h"/></clipPath><clipPath id="p"><use xlink:href="#g"/></clipPath><clipPath id="o"><use xlink:href="#f"/></clipPath><clipPath id="n"><use xlink:href="#e"/></clipPath><clipPath id="m"><use xlink:href="#d"/></clipPath><clipPath id="l"><use xlink:href="#c"/></clipPath><clipPath id="k"><use xlink:href="#b"/></clipPath><path d="M0 119.871c0-49.705 40.294-90 90-90s90 40.295 90 90c0 49.706-40.294 90-90 90s-90-40.294-90-90z" id="b"/><path d="M79.847 43.075V31.138c0-8.598 1.816-15.938 5.45-22.018C88.93 3.04 93.314 0 98.453 0h16.351c5.138 0 9.524 3.04 13.157 9.12 3.633 6.08 5.45 13.42 5.45 22.018v23.873c0 8.599-1.817 15.938-5.45 22.018s-8.019 9.12-13.157 9.12h-16.35c-5.139 0-9.524-3.04-13.157-9.12-3.634-6.08-5.45-13.42-5.45-22.018V43.075z" id="i"/><path d="M0 43.075V31.138C0 22.54 2.369 15.2 7.106 9.12S17.562 0 24.261 0h84.888c6.7 0 12.418 3.04 17.156 9.12 4.737 6.08 7.106 13.42 7.106 22.018v23.873c0 8.599-2.369 15.938-7.106 22.018-4.738 6.08-10.456 9.12-17.156 9.12H24.261c-6.7 0-12.418-3.04-17.155-9.12C2.369 70.95 0 63.61 0 55.011V43.075z" id="h"/><path d="M128.079 87.112s-7.606 10.512-8.387 20.926c-.78 10.414-2.36 13.513-6.192 16.333-3.832 2.821 2.834 7.305 6.192 8.668 3.359 1.362 20.345 2.17 38.001-6 17.655-8.171 23.538-23.814 25-33 1.462-9.188 2.623-16.232-10.5-18-13.124-1.77-9.094 6.758-20.5 11.073-11.407 4.314-23.614 0-23.614 0z" id="g"/><path d="m.246 17.194.062-1.271c.124-2.515 2.038-3.604 4.402-2.736 2.496.916 5.407 1.638 6.603.618 1.18-1.007.508-4.023-.413-6.694-.907-2.633.329-4.825 3.106-5.029l1.81-.133c2.552-.188 5.321 1.621 5.827 4.13.987 4.896 1.45 12.472-4.031 15.637-4.571 2.639-9.376 2.556-12.81 1.93C2.074 23.148.11 19.965.247 17.194z" id="f"/><path d="m31.5 37.548-.85.949c-1.678 1.877-3.85 1.518-5.142-.644-1.363-2.282-3.171-4.676-4.742-4.636-1.551.04-2.927 2.807-3.892 5.462-.952 2.618-3.292 3.543-5.579 1.954l-1.49-1.036c-2.102-1.46-3.115-4.609-1.93-6.876 2.314-4.426 6.724-10.605 12.974-9.615 5.213.825 8.895 3.913 11.17 6.56 1.808 2.105 1.33 5.814-.52 7.882z" id="e"/><path d="m33.48 2.028 1.164.514c2.304 1.016 2.634 3.194.977 5.09-1.75 2.001-3.467 4.46-2.944 5.942.517 1.463 3.575 1.917 6.398 2.014 2.783.096 4.386 2.035 3.581 4.702l-.524 1.738c-.74 2.449-3.42 4.386-5.943 3.959-4.925-.833-12.164-3.117-13.154-9.367-.826-5.214.974-9.67 2.788-12.65C27.266 1.6 30.942.907 33.48 2.027z" id="d"/><path d="M55.147 28.87s-29.839-12.457-35.95-11.785C13.084 17.758 32.06.502 38.427.006 44.797-.489 55.147 28.87 55.147 28.87z" id="c"/><path d="M239.166 167.256s53.341 5.603 39.143 75.616-140.156 58.752-167.501 48c-27.346-10.752-44.66-20.914-47.5-55.5-2.84-34.586 0-54.001 0-54.001s23.197 31.043 43 9.001c19.803-22.043 132.858-23.116 132.858-23.116z" id="a"/></defs><path d="M0 291c0-17.673 80.813-32 180.5-32S361 273.327 361 291c0 17.673-80.813 32-180.5 32S0 308.673 0 291z" fill="#D3FCFD" fill-rule="evenodd"/><g fill="none" stroke="#E6FEFF" stroke-width="5"><path d="M69.854 272.716c-1.204 1.204-3.557 1.286-5.011 1.91-5.76 2.468-12.228 4.682-18.136 7.635-3.193 1.597-7.383 2.46-6.443 7.16.354 1.773 1.903 1.223 3.102 1.909 2.797 1.598 6.17 4.943 9.307 5.727.948.237 1.598-.384 2.147.716M86.798 300.398c0 2.192 2.176 2.499 3.579 3.34 4.281 2.57 9.679 5.49 14.795 5.49 22.606 0 45.395 1.192 68.011 1.192M198.478 305.648c4.09 0 12.568 1.71 15.99 0 7.69-3.845 16.358-4.534 25.294-4.534M263.626 310.182c-.408-1.63-2.352-4.99-1.194-6.92 1.407-2.345 10.12-2.594 12.41-3.103 12.312-2.736 25.945-1.432 38.658-1.432 2.322 0 4.87.27 7.16-.238 8.688-1.931 6.428-9.319.477-14.08-1.613-1.29-3.6-.57-5.25-1.67M289.637 273.193c0 2.127 2.745 2.566 4.295 3.341 2.825 1.413 11.481 5.065 9.784 9.307-.599 1.498-5.09 2.264-6.443 2.625-6.184 1.649-13.829.477-20.284.477"/></g><g><g transform="translate(5)"><use fill="#FFF" xlink:href="#a" fill-rule="evenodd"/><g clip-path="url(#j)"><use xlink:href="#a" fill="none" stroke="#000" stroke-width="6"/></g></g><g transform="translate(78.808)"><use fill="#FFF" xlink:href="#b" fill-rule="evenodd"/><g clip-path="url(#k)"><use xlink:href="#b" fill="none" stroke="#000" stroke-width="6"/></g></g><g transform="translate(78.808)"><use fill="#FFF" xlink:href="#c" fill-rule="evenodd"/><g clip-path="url(#l)"><use xlink:href="#c" fill="none" stroke="#000" stroke-width="6"/></g></g><path d="M111.512 208.828 254.5 215l-9-56.5-132 31-1.988 19.328z" fill="#FFF" fill-rule="evenodd"/><g transform="translate(96.808 49.871)"><use fill="#FE5367" xlink:href="#d" fill-rule="evenodd"/><g clip-path="url(#m)"><use xlink:href="#d" fill="none" stroke="#000" stroke-width="4"/></g></g><g transform="translate(96.808 49.871)"><use fill="#FE5367" xlink:href="#e" fill-rule="evenodd"/><g clip-path="url(#n)"><use xlink:href="#e" fill="none" stroke="#000" stroke-width="4"/></g></g><g transform="translate(96.808 49.871)"><use fill="#FE5367" xlink:href="#f" fill-rule="evenodd"/><g clip-path="url(#o)"><use xlink:href="#f" fill="none" stroke="#000" stroke-width="4"/></g></g><g fill-rule="evenodd"><path d="m144.847 73.764 40.562.708q.196.003.391.026.195.022.387.064t.38.102q.186.06.366.139.18.078.352.174.172.095.333.207.161.112.311.24.15.126.286.268.136.141.258.295t.229.32q.106.164.195.34.09.174.162.357.072.182.126.371.053.19.088.383.035.193.051.389.016.195.012.392v.004q-.003.196-.026.391-.022.195-.064.387t-.102.38q-.06.186-.139.366-.078.18-.173.352-.096.171-.208.333-.112.161-.24.31-.126.15-.268.287-.141.136-.295.258t-.32.228q-.164.107-.34.196-.174.09-.357.162-.182.072-.371.126-.19.053-.383.088-.193.035-.389.051-.195.016-.392.012l-40.562-.708q-.196-.003-.391-.026-.195-.022-.387-.064t-.38-.102q-.186-.06-.366-.139-.18-.078-.352-.174-.172-.095-.333-.207-.161-.112-.311-.24-.15-.126-.286-.268-.137-.141-.258-.295-.122-.154-.229-.32-.106-.164-.195-.34-.09-.174-.162-.357-.072-.183-.126-.371-.053-.19-.088-.383-.035-.193-.051-.389-.016-.195-.013-.392v-.004q.004-.196.027-.391.022-.195.064-.387t.102-.38q.06-.186.139-.366.078-.18.173-.352.096-.171.208-.333.112-.161.24-.31.126-.15.268-.287.141-.136.295-.258t.32-.228q.164-.107.34-.196.174-.09.357-.162.182-.072.371-.126.19-.053.383-.088.193-.035.389-.051.195-.016.392-.012z"/><path d="M148.808 97.871c0-12.15 9.85-22 22-22s22 9.85 22 22-9.85 22-22 22-22-9.85-22-22z"/><path d="M152.808 94.871c0-5.522 4.477-10 10-10s10 4.478 10 10c0 5.523-4.477 10-10 10s-10-4.477-10-10z" fill="#FFF"/><g><path d="m224.002 58.41 20.21-15.789q.154-.12.32-.226.166-.105.341-.193.175-.089.359-.16.183-.07.372-.123.19-.052.383-.086.193-.034.39-.048.195-.015.391-.01.197.005.392.029.195.023.386.066.192.043.379.105.186.061.366.14.18.08.35.177.171.097.332.21.16.113.31.241.148.128.284.27.135.143.256.297l.002.003q.121.155.227.321.105.166.193.341.089.176.16.359.07.183.123.372.052.19.086.383.033.194.048.39.015.195.01.392-.005.196-.029.391t-.067.387q-.043.191-.104.378-.062.186-.141.366-.08.18-.176.35-.097.172-.21.332-.113.16-.241.31-.128.148-.27.284-.143.135-.298.256l-20.208 15.79q-.155.12-.32.225-.167.105-.342.194-.176.088-.359.159-.183.07-.372.123-.19.053-.383.086-.194.034-.39.049-.195.014-.392.01-.196-.005-.391-.03-.195-.023-.387-.066-.191-.043-.378-.104-.186-.062-.366-.141-.18-.08-.35-.177-.171-.096-.332-.21-.16-.112-.31-.24-.148-.129-.284-.271-.135-.142-.256-.297l-.003-.003q-.12-.155-.226-.32-.105-.167-.193-.342-.089-.175-.16-.359-.07-.183-.123-.372-.052-.19-.086-.383-.034-.193-.048-.39-.015-.195-.01-.391.005-.197.029-.392t.066-.386q.043-.192.105-.378.061-.187.14-.367.08-.18.177-.35.097-.171.21-.332.113-.16.241-.31.128-.148.27-.284.143-.135.297-.256z"/><path d="M226.808 66.871c0-8.284 6.716-15 15-15 8.284 0 15 6.716 15 15 0 8.285-6.716 15-15 15-8.284 0-15-6.715-15-15z"/><path d="M229.808 63.371c0-3.037 2.238-5.5 5-5.5 2.761 0 5 2.463 5 5.5 0 3.038-2.239 5.5-5 5.5-2.762 0-5-2.462-5-5.5z" fill="#FFF"/></g></g><g transform="translate(78.808)"><use fill="#D97706" xlink:href="#g" fill-rule="evenodd"/><g clip-path="url(#p)"><use xlink:href="#g" fill="none" stroke="#A95B00" stroke-width="6"/></g></g><g><path d="M131.122 223.426c3.123 4.461 1.727 10.829-3.12 14.222-4.846 3.394-11.307 2.528-14.431-1.933-3.108-4.438-1.766-10.776 3.088-14.2 4.855-3.422 11.34-2.55 14.463 1.91z" fill="#79431F" fill-rule="evenodd"/><path d="M124.573 214.074c3.124 4.46 1.727 10.828-3.12 14.222-4.846 3.393-11.307 2.528-14.43-1.933-3.108-4.438-1.767-10.777 3.088-14.2 4.854-3.423 11.338-2.55 14.462 1.91z" fill="#79431F" fill-rule="evenodd"/><path d="M118.024 204.721c3.124 4.46 1.727 10.828-3.12 14.222-4.846 3.393-11.307 2.528-14.43-1.933-3.108-4.438-1.766-10.777 3.088-14.2 4.854-3.422 11.339-2.55 14.462 1.911z" fill="#79431F" fill-rule="evenodd"/><path d="M111.476 195.368c3.123 4.461 1.727 10.829-3.12 14.222-4.846 3.394-11.307 2.529-14.431-1.932-3.108-4.439-1.766-10.777 3.088-14.2 4.855-3.423 11.34-2.55 14.463 1.91z" fill="#79431F" fill-rule="evenodd"/><g transform="rotate(-35 260.753 73.498)"><use fill="#985F3A" xlink:href="#h" fill-rule="evenodd"/><g clip-path="url(#q)"><use xlink:href="#h" fill="none" stroke="#664027" stroke-width="6" stroke-linecap="round" stroke-linejoin="round"/></g></g><g transform="rotate(-35 260.753 73.498)"><use fill="#AF8060" xlink:href="#i" fill-rule="evenodd"/><g clip-path="url(#r)"><use xlink:href="#i" fill="none" stroke="#664027" stroke-width="6" stroke-linecap="round" stroke-linejoin="round"/></g></g></g><path d="M161.449 223.777c-16.189-18.042-51.249-17.031-58.624-5.51-7.375 11.52 12.254 18.763 12.254 18.763s-18.907-3.309-17.157 9.926c1.751 13.235 24.821 9.679 24.821 9.679s-23.244 6.299-10.948 14.21c12.296 7.91 58.383 4.198 57.144-24.72" fill="#FFF" fill-rule="evenodd" stroke="#000" stroke-width="3" stroke-linecap="round" stroke-linejoin="round"/><g fill-rule="evenodd"><path d="M225.26 173.191s-6.564 55.625 1.472 70.009c8.036 14.383 19.834 16.958 18.855 4.837-.98-12.121 3.567-19.167 7.132-9.614 3.565 9.553 7.659 17.752 10.666 8.053 3.008-9.7 4.76-14.008 7.368-12.631 2.606 1.376 3.48 6.449 7.891 4.8 4.412-1.648 1.757-17.54 9.561-10.326 7.804 7.213 5.107-3.347 3.264-8.276-1.843-4.93-3.296-24.67-19.774-38.214-16.479-13.544-22.99-17.958-22.99-17.958l-23.446 9.32z" fill="#EFEFEF"/><path d="m223.685 160.852 18.847-5.738q.183-.056.37-.103.185-.047.373-.085.188-.038.377-.067.19-.029.38-.048.19-.02.382-.031.191-.01.383-.012.191-.002.383.006.191.007.382.024.19.017.38.043.19.026.379.06.188.035.375.08.186.043.37.096.185.053.366.114.182.062.36.132t.353.149q.175.079.346.165.17.087.337.182.166.095.328.198.162.103.318.213.157.11.308.229.15.118.296.242.145.125.285.257.139.132.271.27.133.138.259.283.126.144.245.295.119.15.23.306.112.156.215.317.104.16.2.326.097.166.185.336t.167.345q.08.174.152.352.07.177.134.358l2.59 7.47q.066.19.122.384.056.193.103.388.046.196.083.394.037.198.063.397.027.2.043.4.017.2.023.402.007.2.003.402-.004.201-.017.402-.014.2-.038.4t-.058.398q-.033.199-.077.395t-.098.39q-.053.194-.116.385-.064.191-.136.379-.073.187-.155.37-.082.184-.174.364-.091.179-.191.353-.1.175-.209.344-.109.17-.226.333t-.242.32q-.125.158-.258.31-.133.15-.274.294-.14.144-.288.281-.147.137-.301.266-.154.13-.315.251-.16.121-.327.234-.166.114-.338.218-.172.105-.348.2-.177.097-.359.183-.181.087-.367.165-.185.077-.375.146-.189.068-.381.126l-18.847 5.739q-.184.055-.37.102-.185.047-.373.085-.188.038-.377.067-.19.03-.38.05-.19.02-.382.03-.191.01-.383.012-.191.002-.383-.006-.191-.007-.382-.024t-.381-.043q-.19-.026-.378-.06-.189-.036-.375-.08-.187-.043-.37-.096-.185-.053-.366-.115-.182-.061-.36-.131-.179-.07-.353-.149-.175-.079-.346-.166-.17-.086-.337-.181-.166-.095-.328-.198-.162-.103-.318-.214-.157-.11-.308-.228-.151-.118-.296-.243-.146-.125-.285-.256-.139-.132-.272-.27-.132-.139-.258-.283-.126-.144-.245-.295-.119-.15-.23-.306-.112-.156-.216-.317-.104-.16-.2-.326-.096-.166-.184-.336t-.168-.345q-.08-.174-.15-.352-.072-.178-.135-.359l-2.59-7.47q-.066-.19-.122-.383-.057-.193-.103-.389-.046-.195-.083-.393-.037-.198-.063-.397-.027-.2-.043-.4-.017-.2-.023-.402-.007-.2-.003-.402.003-.201.017-.402.014-.2.038-.4t.057-.398q.034-.199.078-.395t.097-.39q.054-.194.117-.385.064-.191.136-.379.073-.187.155-.37.082-.184.174-.364.09-.179.19-.354.101-.174.21-.343.109-.17.226-.333.117-.164.242-.32.125-.158.258-.31.133-.15.274-.294.14-.144.288-.281.147-.137.301-.266.154-.13.315-.251.16-.121.327-.235.166-.113.338-.217.172-.105.348-.2.177-.097.359-.183.181-.087.367-.165.185-.078.375-.146.189-.068.381-.127z" fill="#D4D4D4"/></g></g></svg>