<svg xmlns="http://www.w3.org/2000/svg"
  xmlns:xlink="http://www.w3.org/1999/xlink" viewBox="0 0 450 453">
  <defs>
    <clipPath id="l">
      <use xlink:href="#a"/>
    </clipPath>
    <clipPath id="m">
      <use xlink:href="#b"/>
    </clipPath>
    <clipPath id="n">
      <use xlink:href="#c"/>
    </clipPath>
    <clipPath id="o">
      <use xlink:href="#d"/>
    </clipPath>
    <clipPath id="p">
      <use xlink:href="#e"/>
    </clipPath>
    <clipPath id="q">
      <use xlink:href="#f"/>
    </clipPath>
    <clipPath id="r">
      <use xlink:href="#g"/>
    </clipPath>
    <clipPath id="s">
      <use xlink:href="#h"/>
    </clipPath>
    <clipPath id="t">
      <use xlink:href="#i"/>
    </clipPath>
    <clipPath id="u">
      <use xlink:href="#j"/>
    </clipPath>
    <clipPath id="v">
      <use xlink:href="#k"/>
    </clipPath>
    <path id="a" d="M239 167s54 6 39 76c-14 70-140 59-167 48-28-11-45-21-48-56-3-34 0-54 0-54s24 31 43 9c20-22 133-23 133-23Z"/>
    <path id="b" d="M0 120a90 90 0 1 1 180 0 90 90 0 0 1-180 0Z"/>
    <path id="c" d="m33 2 2 1c2 1 2 3 1 5-2 2-4 4-3 6l6 2c3 0 4 2 4 4l-1 2c-1 2-3 4-6 4-5-1-12-3-13-9s1-10 3-13c1-2 5-3 7-2Z"/>
    <path id="d" d="M31 38c-2 2-4 2-5 0l-5-5c-2 0-3 3-4 6-1 2-3 3-6 2l-1-1c-2-2-3-5-2-7 2-5 7-11 13-10 5 1 9 4 11 7 2 2 1 5-1 8Z"/>
    <path id="e" d="M0 17v-1c0-3 2-4 5-3 2 1 5 2 6 1V7c-1-3 0-5 3-5h2c2 0 5 2 6 4 1 5 1 13-4 16-5 2-10 2-13 2-3-1-5-4-5-7Z"/>
    <path id="f" d="M8 24a22 22 0 1 1 44 0 22 22 0 0 1-44 0Z"/>
    <path id="g" d="M6 27a15 15 0 1 1 30 0 15 15 0 0 1-30 0Z"/>
    <path id="h" d="M128 87s-8 11-8 21c-1 10-3 14-6 16-4 3 2 8 6 9 3 1 20 2 38-6 17-8 23-24 25-33 1-9 2-16-11-18s-9 7-20 11c-12 4-24 0-24 0Z"/>
    <path id="i" d="M55 29S25 16 19 17 32 1 38 0c7 0 17 29 17 29Z"/>
    <path id="j" d="M0 43V31c0-8 2-16 7-22s11-9 17-9h85c7 0 13 3 17 9 5 6 7 14 7 22v24c0 9-2 16-7 22-4 6-10 9-17 9H24c-6 0-12-3-17-9S0 64 0 55V43Z"/>
    <path id="k" d="M80 43V31c0-8 2-16 5-22 4-6 8-9 13-9h17c5 0 9 3 13 9s5 14 5 22v24c0 9-1 16-5 22s-8 9-13 9H98c-5 0-9-3-13-9-3-6-5-13-5-22V43Z"/>
  </defs>
  <path fill="#FFB86C" fill-rule="evenodd" d="M0 225a225 225 0 1 1 450 0 225 225 0 0 1-450 0Z"/>
  <path fill="#7990D8" fill-rule="evenodd" d="M36 345c0-18 85-32 189-32s189 14 189 32-85 108-189 108S36 363 36 345Z"/>
  <path fill="none" stroke="#A0CAF9" stroke-width="5" d="m109 327-5 2-19 7c-3 2-8 3-7 7 1 2 2 2 3 2l10 6 2 1m34 2c0 3 2 3 4 4 4 2 10 5 15 5l71 1m27-4h17c8-4 17-5 26-5m25 9c0-1-2-5-1-7s10-2 13-3c13-3 27-1 40-1l8-1c9-1 6-9 0-14l-5-1m-28-10c0 2 3 3 5 4 3 1 12 5 10 9l-7 2c-6 2-14 1-21 1"/>
  <g transform="translate(55 54)">
    <use xlink:href="#a" fill="#E0D5B1" fill-rule="evenodd"/>
    <g clip-path="url(#l)">
      <use xlink:href="#a" fill="none" stroke="#797361" stroke-width="6"/>
    </g>
  </g>
  <g transform="translate(129 54)">
    <use xlink:href="#b" fill="#50FA7B" fill-rule="evenodd"/>
    <g clip-path="url(#m)">
      <use xlink:href="#b" fill="none" stroke="#468456" stroke-width="6"/>
    </g>
  </g>
  <g transform="translate(147 104)">
    <use xlink:href="#c" fill="#FE5367" fill-rule="evenodd"/>
    <g clip-path="url(#n)">
      <use xlink:href="#c" fill="none" stroke="#000" stroke-width="4"/>
    </g>
  </g>
  <g transform="translate(147 104)">
    <use xlink:href="#d" fill="#FE5367" fill-rule="evenodd"/>
    <g clip-path="url(#o)">
      <use xlink:href="#d" fill="none" stroke="#000" stroke-width="4"/>
    </g>
  </g>
  <g transform="translate(147 104)">
    <use xlink:href="#e" fill="#FE5367" fill-rule="evenodd"/>
    <g clip-path="url(#p)">
      <use xlink:href="#e" fill="none" stroke="#000" stroke-width="4"/>
    </g>
  </g>
  <g transform="translate(191 128)">
    <use xlink:href="#f" fill-rule="evenodd"/>
    <g clip-path="url(#q)">
      <use xlink:href="#f" fill="none" stroke="#8E5E98" stroke-width="4"/>
    </g>
  </g>
  <path fill-rule="evenodd" d="M195 128h41v1h2v1h1v5h-1v1h-44l-1-1h-1v-1h-1v-5h1l1-1h2Z"/>
  <path fill="#FFF" fill-rule="evenodd" d="M203 149a10 10 0 1 1 20 0 10 10 0 0 1-20 0Z"/>
  <g transform="translate(271 94)">
    <use xlink:href="#g" fill-rule="evenodd"/>
    <g clip-path="url(#r)">
      <use xlink:href="#g" fill="none" stroke="#8E5E98" stroke-width="4"/>
    </g>
  </g>
  <path fill-rule="evenodd" d="m274 112 20-15 1-1h4v1h1v1l1 1v2h-1v1l-1 1-20 16h-1l-1 1h-1v-1h-2v-1h-1v-2h-1v-1h1v-2h1v-1Z"/>
  <path fill="#FFF" fill-rule="evenodd" d="M280 117c0-3 2-5 5-5s5 2 5 5-2 6-5 6-5-3-5-6ZM177 234l32 8c7 0 28-8 44-15 17-7 18-6 24-6h9l3 9-34 6-37 12c-4 1-40-6-40-6l-9-6 8-2Z"/>
  <path fill="#A99283" fill-rule="evenodd" d="M160 249s26 10 42 14c15 4 41 22 48 26 8 3 39 17 54 7 16-11 25-24 21-36-3-13-10-34-21-35-10-2-13 0-26 0-13-1-62 22-69 22-7-1-39-14-46-13s-3 15-3 15Z"/>
  <g transform="translate(129 54)">
    <use xlink:href="#h" fill="#FFB86C" fill-rule="evenodd"/>
    <g clip-path="url(#s)">
      <use xlink:href="#h" fill="none" stroke="#9B7245" stroke-width="6"/>
    </g>
  </g>
  <g transform="translate(129 54)">
    <use xlink:href="#i" fill="#50FA7B" fill-rule="evenodd"/>
    <g clip-path="url(#t)">
      <use xlink:href="#i" fill="none" stroke="#478F59" stroke-width="6"/>
    </g>
  </g>
  <path fill="#79431F" fill-rule="evenodd" d="M181 277c3 5 2 11-3 15-5 3-11 2-14-2-4-5-2-11 3-15 5-3 11-2 14 2Z"/>
  <path fill="#79431F" fill-rule="evenodd" d="M175 268c3 4 1 11-4 14-4 4-11 3-14-2-3-4-2-11 3-14s11-2 15 2Z"/>
  <path fill="#79431F" fill-rule="evenodd" d="M168 259c3 4 2 10-3 14-5 3-11 2-15-2-3-5-1-11 4-14 4-4 11-3 14 2Z"/>
  <path fill="#79431F" fill-rule="evenodd" d="M161 249c4 5 2 11-3 14-4 4-11 3-14-1-3-5-2-11 3-15 5-3 11-2 14 2Z"/>
  <g transform="rotate(-35 371 21)">
    <use xlink:href="#j" fill="#985F3A" fill-rule="evenodd"/>
    <g clip-path="url(#u)">
      <use xlink:href="#j" fill="none" stroke="#664027" stroke-linecap="round" stroke-linejoin="round" stroke-width="6"/>
    </g>
  </g>
  <g transform="rotate(-35 371 21)">
    <use xlink:href="#k" fill="#AF8060" fill-rule="evenodd"/>
    <g clip-path="url(#v)">
      <use xlink:href="#k" fill="none" stroke="#664027" stroke-linecap="round" stroke-linejoin="round" stroke-width="6"/>
    </g>
  </g>
  <path fill="#E0D5B1" fill-rule="evenodd" stroke="#797361" stroke-linecap="round" stroke-linejoin="round" stroke-width="3" d="M211 278c-16-18-51-17-58-6-8 12 12 19 12 19s-19-3-17 10 25 10 25 10-24 6-11 14c12 8 58 4 57-25"/>
  <g fill-rule="evenodd">
    <path fill="#EFEFEF" d="M275 227s-6 56 2 70c8 15 20 17 19 5s3-19 7-10c3 10 7 18 10 8 3-9 5-14 8-12 2 1 3 6 8 5 4-2 1-18 9-11 8 8 5-3 3-8-1-5-3-25-19-38l-23-18-24 9Z"/>
    <path fill="#D4D4D4" d="m274 215 19-6h5v1h2v1h1v1h1v2l3 8v6h-1v1l-1 1-1 1h-1v1h-1l-19 6h-5v-1h-2v-1h-1v-1h-1v-1l-1-1-3-8v-5h1v-2h1v-1h1v-1h1v-1h2Z"/>
  </g>
</svg>
